<mxfile host="app.diagrams.net" modified="2024-07-13T21:23:04.410Z" agent="Mozilla/5.0 (Windows NT 10.0; Win64; x64) AppleWebKit/537.36 (KHTML, like Gecko) Chrome/126.0.0.0 Safari/537.36 Edg/126.0.0.0" etag="dAb61RdjLW3ePUL2G-Ox" version="24.6.5" type="google">
  <diagram name="Page-1" id="nF36BwmnL3rn6525q2d4">
    <mxGraphModel dx="1042" dy="585" grid="1" gridSize="10" guides="1" tooltips="1" connect="1" arrows="1" fold="1" page="1" pageScale="1" pageWidth="850" pageHeight="1100" math="0" shadow="0">
      <root>
        <mxCell id="0" />
        <mxCell id="1" parent="0" />
        <mxCell id="hminh6sXlhF5MZS-ViPJ-2" value="START" style="strokeWidth=2;html=1;shape=mxgraph.flowchart.start_1;whiteSpace=wrap;fillColor=#e1d5e7;strokeColor=#9673a6;fontStyle=1" parent="1" vertex="1">
          <mxGeometry x="200" y="220" width="120" height="60" as="geometry" />
        </mxCell>
        <mxCell id="hminh6sXlhF5MZS-ViPJ-4" value="" style="endArrow=classic;html=1;rounded=0;" parent="1" edge="1">
          <mxGeometry width="50" height="50" relative="1" as="geometry">
            <mxPoint x="259.5" y="280" as="sourcePoint" />
            <mxPoint x="260" y="330" as="targetPoint" />
          </mxGeometry>
        </mxCell>
        <mxCell id="hminh6sXlhF5MZS-ViPJ-9" value="" style="edgeStyle=orthogonalEdgeStyle;rounded=0;orthogonalLoop=1;jettySize=auto;html=1;" parent="1" source="hminh6sXlhF5MZS-ViPJ-5" target="hminh6sXlhF5MZS-ViPJ-7" edge="1">
          <mxGeometry relative="1" as="geometry" />
        </mxCell>
        <mxCell id="hminh6sXlhF5MZS-ViPJ-5" value="&lt;b&gt;Get Attendance&lt;/b&gt;" style="shape=parallelogram;html=1;strokeWidth=2;perimeter=parallelogramPerimeter;whiteSpace=wrap;rounded=1;arcSize=12;size=0.23;fillColor=#e1d5e7;strokeColor=#9673a6;" parent="1" vertex="1">
          <mxGeometry x="190" y="330" width="140" height="60" as="geometry" />
        </mxCell>
        <mxCell id="hminh6sXlhF5MZS-ViPJ-6" value="" style="endArrow=classic;html=1;rounded=0;" parent="1" edge="1">
          <mxGeometry width="50" height="50" relative="1" as="geometry">
            <mxPoint x="259.5" y="390" as="sourcePoint" />
            <mxPoint x="260" y="440" as="targetPoint" />
          </mxGeometry>
        </mxCell>
        <mxCell id="hminh6sXlhF5MZS-ViPJ-7" value="&lt;b&gt;Get Score&lt;/b&gt;" style="shape=parallelogram;html=1;strokeWidth=2;perimeter=parallelogramPerimeter;whiteSpace=wrap;rounded=1;arcSize=12;size=0.23;fillColor=#e1d5e7;strokeColor=#9673a6;" parent="1" vertex="1">
          <mxGeometry x="190" y="440" width="140" height="60" as="geometry" />
        </mxCell>
        <mxCell id="hminh6sXlhF5MZS-ViPJ-8" value="&lt;b&gt;Get Feedback&lt;/b&gt;" style="shape=parallelogram;html=1;strokeWidth=2;perimeter=parallelogramPerimeter;whiteSpace=wrap;rounded=1;arcSize=12;size=0.23;fillColor=#e1d5e7;strokeColor=#9673a6;" parent="1" vertex="1">
          <mxGeometry x="190" y="550" width="140" height="60" as="geometry" />
        </mxCell>
        <mxCell id="hminh6sXlhF5MZS-ViPJ-10" value="" style="endArrow=classic;html=1;rounded=0;" parent="1" edge="1">
          <mxGeometry width="50" height="50" relative="1" as="geometry">
            <mxPoint x="259.5" y="500" as="sourcePoint" />
            <mxPoint x="260" y="550" as="targetPoint" />
          </mxGeometry>
        </mxCell>
        <mxCell id="hminh6sXlhF5MZS-ViPJ-11" value="" style="endArrow=classic;html=1;rounded=0;" parent="1" target="hminh6sXlhF5MZS-ViPJ-13" edge="1">
          <mxGeometry width="50" height="50" relative="1" as="geometry">
            <mxPoint x="259.5" y="610" as="sourcePoint" />
            <mxPoint x="260" y="660" as="targetPoint" />
          </mxGeometry>
        </mxCell>
        <mxCell id="hminh6sXlhF5MZS-ViPJ-12" value="" style="endArrow=classic;html=1;rounded=0;" parent="1" edge="1">
          <mxGeometry width="50" height="50" relative="1" as="geometry">
            <mxPoint x="259.5" y="730" as="sourcePoint" />
            <mxPoint x="260" y="780" as="targetPoint" />
          </mxGeometry>
        </mxCell>
        <mxCell id="hminh6sXlhF5MZS-ViPJ-13" value="Evaluate Total_score&lt;div&gt;as&lt;/div&gt;&lt;div&gt;Attendance + Score&lt;/div&gt;" style="rounded=1;whiteSpace=wrap;html=1;absoluteArcSize=1;arcSize=14;strokeWidth=2;fillColor=#e1d5e7;strokeColor=#9673a6;fontStyle=1" parent="1" vertex="1">
          <mxGeometry x="190" y="660" width="140" height="70" as="geometry" />
        </mxCell>
        <mxCell id="hminh6sXlhF5MZS-ViPJ-14" value="Total_Score&lt;div&gt;&amp;gt;60%&lt;/div&gt;" style="strokeWidth=2;html=1;shape=mxgraph.flowchart.decision;whiteSpace=wrap;fontStyle=1;fillColor=#e1d5e7;strokeColor=#9673a6;" parent="1" vertex="1">
          <mxGeometry x="190" y="780" width="140" height="80" as="geometry" />
        </mxCell>
        <mxCell id="hminh6sXlhF5MZS-ViPJ-23" value="" style="endArrow=classic;html=1;rounded=0;" parent="1" edge="1">
          <mxGeometry relative="1" as="geometry">
            <mxPoint x="330" y="819.5" as="sourcePoint" />
            <mxPoint x="430" y="819.5" as="targetPoint" />
          </mxGeometry>
        </mxCell>
        <mxCell id="hminh6sXlhF5MZS-ViPJ-24" value="NO" style="edgeLabel;resizable=0;html=1;;align=center;verticalAlign=middle;" parent="hminh6sXlhF5MZS-ViPJ-23" connectable="0" vertex="1">
          <mxGeometry relative="1" as="geometry" />
        </mxCell>
        <mxCell id="hminh6sXlhF5MZS-ViPJ-25" value="Tenable&lt;div&gt;Feedback&lt;/div&gt;" style="strokeWidth=2;html=1;shape=mxgraph.flowchart.decision;whiteSpace=wrap;fontStyle=1;fillColor=#e1d5e7;strokeColor=#9673a6;" parent="1" vertex="1">
          <mxGeometry x="430" y="780" width="140" height="80" as="geometry" />
        </mxCell>
        <mxCell id="hminh6sXlhF5MZS-ViPJ-26" value="" style="endArrow=classic;html=1;rounded=0;" parent="1" edge="1">
          <mxGeometry relative="1" as="geometry">
            <mxPoint x="570" y="819.5" as="sourcePoint" />
            <mxPoint x="670" y="819.5" as="targetPoint" />
          </mxGeometry>
        </mxCell>
        <mxCell id="hminh6sXlhF5MZS-ViPJ-27" value="NO" style="edgeLabel;resizable=0;html=1;;align=center;verticalAlign=middle;" parent="hminh6sXlhF5MZS-ViPJ-26" connectable="0" vertex="1">
          <mxGeometry relative="1" as="geometry" />
        </mxCell>
        <mxCell id="hminh6sXlhF5MZS-ViPJ-28" value="Drop-out" style="rounded=1;whiteSpace=wrap;html=1;absoluteArcSize=1;arcSize=14;strokeWidth=2;fillColor=#e1d5e7;strokeColor=#9673a6;fontStyle=1" parent="1" vertex="1">
          <mxGeometry x="670" y="785" width="140" height="70" as="geometry" />
        </mxCell>
        <mxCell id="hminh6sXlhF5MZS-ViPJ-29" value="Proceed" style="rounded=1;whiteSpace=wrap;html=1;absoluteArcSize=1;arcSize=14;strokeWidth=2;fillColor=#e1d5e7;strokeColor=#9673a6;fontStyle=1" parent="1" vertex="1">
          <mxGeometry x="190" y="920" width="140" height="70" as="geometry" />
        </mxCell>
        <mxCell id="hminh6sXlhF5MZS-ViPJ-32" value="" style="endArrow=classic;html=1;rounded=0;" parent="1" target="hminh6sXlhF5MZS-ViPJ-29" edge="1">
          <mxGeometry relative="1" as="geometry">
            <mxPoint x="259.5" y="860" as="sourcePoint" />
            <mxPoint x="260" y="910" as="targetPoint" />
          </mxGeometry>
        </mxCell>
        <mxCell id="hminh6sXlhF5MZS-ViPJ-33" value="Yes" style="edgeLabel;resizable=0;html=1;;align=center;verticalAlign=middle;" parent="hminh6sXlhF5MZS-ViPJ-32" connectable="0" vertex="1">
          <mxGeometry relative="1" as="geometry" />
        </mxCell>
        <mxCell id="hminh6sXlhF5MZS-ViPJ-34" value="&lt;b&gt;End&lt;/b&gt;" style="strokeWidth=2;html=1;shape=mxgraph.flowchart.terminator;whiteSpace=wrap;fillColor=#e1d5e7;strokeColor=#9673a6;" parent="1" vertex="1">
          <mxGeometry x="190" y="1040" width="140" height="70" as="geometry" />
        </mxCell>
        <mxCell id="hminh6sXlhF5MZS-ViPJ-35" value="" style="endArrow=classic;html=1;rounded=0;" parent="1" edge="1">
          <mxGeometry width="50" height="50" relative="1" as="geometry">
            <mxPoint x="259.5" y="990" as="sourcePoint" />
            <mxPoint x="260" y="1040" as="targetPoint" />
          </mxGeometry>
        </mxCell>
        <mxCell id="hminh6sXlhF5MZS-ViPJ-36" value="" style="endArrow=none;html=1;rounded=0;" parent="1" source="hminh6sXlhF5MZS-ViPJ-8" edge="1">
          <mxGeometry width="50" height="50" relative="1" as="geometry">
            <mxPoint x="390" y="605" as="sourcePoint" />
            <mxPoint x="500" y="580" as="targetPoint" />
          </mxGeometry>
        </mxCell>
        <mxCell id="hminh6sXlhF5MZS-ViPJ-37" value="" style="endArrow=classic;html=1;rounded=0;entryX=0.5;entryY=0;entryDx=0;entryDy=0;entryPerimeter=0;" parent="1" target="hminh6sXlhF5MZS-ViPJ-25" edge="1">
          <mxGeometry width="50" height="50" relative="1" as="geometry">
            <mxPoint x="499.5" y="580" as="sourcePoint" />
            <mxPoint x="499.5" y="650" as="targetPoint" />
          </mxGeometry>
        </mxCell>
        <mxCell id="hminh6sXlhF5MZS-ViPJ-38" value="" style="endArrow=classic;html=1;rounded=0;entryX=1;entryY=0.5;entryDx=0;entryDy=0;" parent="1" edge="1">
          <mxGeometry relative="1" as="geometry">
            <mxPoint x="500" y="960" as="sourcePoint" />
            <mxPoint x="330" y="960" as="targetPoint" />
          </mxGeometry>
        </mxCell>
        <mxCell id="hminh6sXlhF5MZS-ViPJ-39" value="Yes" style="edgeLabel;resizable=0;html=1;;align=center;verticalAlign=middle;" parent="hminh6sXlhF5MZS-ViPJ-38" connectable="0" vertex="1">
          <mxGeometry relative="1" as="geometry" />
        </mxCell>
        <mxCell id="hminh6sXlhF5MZS-ViPJ-40" value="" style="endArrow=none;html=1;rounded=0;" parent="1" edge="1">
          <mxGeometry width="50" height="50" relative="1" as="geometry">
            <mxPoint x="500" y="960" as="sourcePoint" />
            <mxPoint x="500" y="860" as="targetPoint" />
          </mxGeometry>
        </mxCell>
        <mxCell id="hminh6sXlhF5MZS-ViPJ-41" value="&lt;b&gt;COHORT 14&lt;/b&gt;&lt;div&gt;&lt;b&gt;&lt;br&gt;&lt;/b&gt;&lt;/div&gt;&lt;div&gt;&lt;b&gt;Create a flow chart and algorithms&lt;/b&gt;&lt;/div&gt;&lt;div&gt;&lt;b&gt;&lt;br&gt;&lt;/b&gt;&lt;/div&gt;&lt;div&gt;&lt;b&gt;The goal of this program is to develop a flow chart for software that tracks student attendance in cohort meetings,&amp;nbsp;&lt;/b&gt;&lt;/div&gt;&lt;div&gt;&lt;b&gt;records their scores and performance,&amp;nbsp;&lt;/b&gt;&lt;b style=&quot;background-color: initial;&quot;&gt;and gathers their feedback on the program.&amp;nbsp;&lt;/b&gt;&lt;/div&gt;&lt;div&gt;&lt;b style=&quot;background-color: initial;&quot;&gt;Additionally, the application will analyze this data to predict if a student is likely to complete the program or drop out.&lt;/b&gt;&lt;/div&gt;" style="text;html=1;align=center;verticalAlign=middle;resizable=0;points=[];autosize=1;strokeColor=none;fillColor=none;" parent="1" vertex="1">
          <mxGeometry x="100" y="20" width="690" height="110" as="geometry" />
        </mxCell>
      </root>
    </mxGraphModel>
  </diagram>
</mxfile>
